<?xml version="1.0" standalone="no"?>
<!DOCTYPE svg PUBLIC "-//W3C//DTD SVG 20010904//EN"
 "http://www.w3.org/TR/2001/REC-SVG-20010904/DTD/svg10.dtd">
<svg version="1.0" xmlns="http://www.w3.org/2000/svg"
 width="315.000000pt" height="315.000000pt" viewBox="0 0 315.000000 315.000000"
 preserveAspectRatio="xMidYMid meet">

<g transform="translate(0.000000,315.000000) scale(0.100000,-0.100000)"
fill="#000000" stroke="none">
<path d="M0 1575 l0 -1575 1575 0 1575 0 0 1575 0 1575 -782 -1 c-431 0 -772
-4 -758 -8 51 -16 108 -51 138 -86 38 -42 37 -40 13 -106 -13 -34 -17 -58 -12
-73 9 -21 9 -21 -161 -22 -142 -1 -172 -4 -186 -18 -11 -11 -12 -16 -4 -16 7
0 10 -5 7 -10 -4 -6 -11 -8 -16 -5 -15 10 -10 -22 6 -35 19 -15 20 -40 2 -40
-23 0 -49 -37 -43 -58 12 -38 17 -98 6 -82 -5 8 -10 27 -10 41 0 15 -7 30 -15
33 -20 7 -41 58 -48 116 -3 25 -4 39 -1 32 3 -6 10 -10 15 -6 5 3 9 -11 9 -30
0 -37 13 -48 24 -20 11 29 6 43 -24 61 -16 9 -30 21 -30 25 0 12 34 10 47 -3
7 -7 9 12 5 64 -4 71 -3 77 26 119 38 55 91 97 146 114 34 11 -84 13 -731 13
l-773 1 0 -1575z m1840 1277 c0 -15 -36 -42 -45 -35 -4 5 -5 0 -2 -9 4 -10 2
-18 -3 -18 -6 0 -10 -9 -10 -19 0 -36 -11 -53 -26 -40 -12 9 -10 16 6 39 11
16 20 32 20 36 0 11 42 54 52 54 4 0 8 -4 8 -8z m-340 -27 c0 -8 -4 -15 -10
-15 -5 0 -10 7 -10 15 0 8 5 15 10 15 6 0 10 -7 10 -15z m90 -25 c0 -5 -7 -10
-15 -10 -8 0 -15 5 -15 10 0 6 7 10 15 10 8 0 15 -4 15 -10z m251 -73 c-6 -15
-16 -27 -22 -27 -7 0 -8 7 -4 18 4 9 10 30 13 47 5 27 6 28 14 10 6 -13 5 -31
-1 -48z m-241 39 c0 -7 7 -19 15 -26 8 -7 13 -16 10 -20 -3 -5 -1 -11 5 -15
26 -16 4 -25 -60 -25 -38 0 -70 3 -70 6 0 3 14 26 32 50 30 42 68 59 68 30z
m-110 -66 c0 -5 -9 -14 -20 -20 -16 -8 -20 -8 -18 2 2 7 10 16 18 20 21 9 20
9 20 -2z m202 -12 c-11 -11 -32 -3 -32 12 0 4 9 6 21 3 13 -4 17 -9 11 -15z
m-185 -31 c4 -7 20 -18 35 -24 30 -14 69 -4 99 23 14 13 19 12 38 -3 14 -12
20 -24 16 -35 -8 -20 -43 -30 -64 -19 -23 13 -103 12 -118 -1 -10 -8 -20 -8
-38 0 -21 10 -25 9 -25 -4 0 -8 -5 -12 -10 -9 -11 7 2 37 28 68 18 20 28 22
39 4z m113 -95 c0 -4 -17 -6 -37 -4 -65 6 -70 10 -15 11 28 0 52 -3 52 -7z m5
-82 c3 -4 -17 -6 -43 -5 -59 4 -63 5 -32 14 27 8 68 3 75 -9z m-345 -94 c0
-18 -7 -47 -15 -62 -13 -26 -15 -27 -15 -7 0 12 4 24 10 28 11 7 2 35 -11 35
-4 0 -5 -8 -2 -17 6 -16 5 -16 -10 -4 -15 12 -17 11 -17 -3 0 -12 -5 -14 -25
-6 -19 7 -23 6 -18 -5 3 -8 11 -15 19 -15 9 0 14 -12 14 -35 0 -40 -43 -90
-68 -80 -9 3 -12 0 -9 -9 3 -8 -1 -20 -9 -26 -11 -10 -14 -9 -14 6 0 11 -12 0
-30 -29 -16 -26 -32 -47 -35 -47 -4 0 -4 4 -1 9 3 4 -6 33 -21 62 -14 30 -28
48 -30 41 -3 -7 1 -20 9 -30 11 -15 11 -16 -3 -5 -18 15 -29 8 -29 -18 0 -10
-4 -20 -8 -23 -5 -3 -7 8 -4 23 4 31 -15 52 -28 30 -5 -7 -6 -17 -4 -21 3 -4
0 -8 -5 -8 -6 0 -11 7 -11 16 0 14 -1 14 -16 0 -8 -9 -13 -19 -11 -23 3 -5 1
-17 -4 -28 -6 -17 -8 -15 -8 10 -1 33 -20 74 -21 45 -1 -12 -3 -11 -11 3 -7
13 -7 22 0 31 6 7 75 38 153 70 79 31 172 72 208 90 36 19 68 34 73 35 4 0 7
-14 7 -33z m695 -64 c-3 -3 -11 0 -18 7 -9 10 -8 11 6 5 10 -3 15 -9 12 -12z
m118 -45 c15 -6 30 -19 33 -29 6 -20 20 -24 26 -6 3 7 13 2 26 -12 27 -29 29
-50 3 -26 -18 17 -20 16 -26 -3 -7 -24 -16 -26 -34 -8 -8 6 -12 8 -9 2 3 -5 2
-19 -3 -30 -7 -18 -8 -18 -8 5 -1 27 -36 66 -46 50 -8 -13 -35 -1 -35 15 0 7
-7 16 -16 19 -9 4 -14 13 -10 21 3 8 1 15 -4 15 -5 0 -7 7 -3 16 6 15 8 15 20
-2 9 -13 10 -20 2 -25 -7 -4 -8 -9 -1 -13 19 -11 22 25 5 52 l-18 27 35 -28
c19 -15 47 -33 63 -40z m-743 -3 c0 -10 -20 -3 -34 12 -11 10 -16 11 -16 3 0
-7 -3 -10 -6 -6 -3 3 -3 10 1 16 4 7 14 5 31 -5 13 -9 24 -18 24 -20z m567 14
c-3 -8 -6 -5 -6 6 -1 11 2 17 5 13 3 -3 4 -12 1 -19z m-1093 -82 c3 -13 9 -32
12 -43 6 -15 4 -14 -15 4 -21 22 -29 63 -12 63 5 0 12 -11 15 -24z m1443 -9
c10 -11 -30 -8 -47 3 -11 7 -8 8 13 6 15 -1 30 -6 34 -9z m-216 -11 c-9 -10
-8 -16 4 -26 16 -13 20 -5 15 30 -1 8 2 11 7 7 9 -10 13 -77 4 -77 -4 0 -12 9
-18 19 -8 13 -19 18 -34 14 -21 -6 -21 -6 2 21 23 26 41 38 20 12z m262 -1 c4
-8 2 -17 -3 -20 -6 -4 -10 3 -10 14 0 25 6 27 13 6z m-1518 -16 c10 -30 0 -33
-13 -4 -6 14 -7 25 -2 25 5 0 12 -9 15 -21z m1369 -4 c-9 -14 -20 -22 -25 -20
-4 3 -1 14 9 25 25 27 35 24 16 -5z m-881 -75 c3 -11 1 -20 -4 -20 -5 0 -9 9
-9 20 0 11 2 20 4 20 2 0 6 -9 9 -20z m757 -20 c0 -5 -4 -10 -10 -10 -5 0 -10
5 -10 10 0 6 5 10 10 10 6 0 10 -4 10 -10z m-753 -32 c-3 -8 -6 -5 -6 6 -1 11
2 17 5 13 3 -3 4 -12 1 -19z m733 -28 c0 -5 -2 -10 -4 -10 -3 0 -8 5 -11 10
-3 6 -1 10 4 10 6 0 11 -4 11 -10z m-644 -81 c5 0 8 -9 7 -20 -2 -11 1 -18 6
-15 5 4 4 -5 -2 -19 -18 -38 -31 -32 -47 25 -7 23 -5 28 6 23 9 -3 13 -12 9
-22 -5 -13 -4 -14 6 -3 10 9 10 15 1 24 -7 7 -12 17 -12 23 0 5 4 4 9 -3 4 -8
12 -14 17 -13z m384 -56 c0 -5 -5 -15 -10 -23 -8 -12 -10 -11 -10 8 0 12 5 22
10 22 6 0 10 -3 10 -7z m-880 -398 c55 -18 100 -63 100 -101 0 -18 -6 -24 -22
-25 -17 -1 -19 -2 -5 -6 18 -5 21 -22 11 -60 -3 -12 -12 -19 -19 -17 -9 4 -11
-2 -8 -21 4 -20 2 -24 -10 -19 -12 4 -14 1 -10 -15 3 -11 2 -29 -2 -38 -5 -10
-7 -22 -6 -28 1 -5 -6 -1 -14 9 -8 11 -15 23 -15 28 0 4 -8 8 -17 7 -11 0 -13
-3 -5 -6 15 -6 16 -33 1 -33 -7 0 -18 8 -25 18 -9 11 -13 13 -14 4 0 -7 -4
-11 -9 -8 -4 3 -6 -6 -3 -19 2 -15 0 -25 -7 -25 -6 0 -11 -8 -11 -18 0 -18
-18 -42 -31 -42 -4 0 -9 9 -12 20 -8 29 -25 25 -19 -5 2 -15 0 -25 -7 -25 -10
0 -15 14 -12 33 0 4 -6 7 -14 7 -8 0 -15 -4 -15 -10 0 -5 -7 -7 -15 -4 -9 4
-15 1 -15 -7 0 -22 -77 -89 -103 -89 -52 0 -49 21 13 83 37 36 60 67 60 81 0
12 7 31 15 43 15 21 14 23 -9 29 -13 3 -33 4 -43 1 -12 -3 -9 -5 10 -6 32 -1
35 -16 7 -33 -11 -7 -20 -18 -20 -25 0 -7 -4 -13 -10 -13 -5 0 -10 -7 -10 -15
0 -9 -12 -18 -30 -21 -16 -4 -30 -13 -30 -20 0 -8 -7 -14 -15 -14 -7 0 -18 -6
-22 -14 -4 -7 -17 -18 -29 -24 -23 -12 -44 0 -44 27 0 16 28 51 42 51 5 0 31
23 58 50 27 28 54 50 60 50 6 0 8 4 5 10 -11 18 15 50 43 51 17 1 20 3 10 6
-21 5 -24 23 -5 24 10 0 10 2 0 6 -7 2 -13 12 -13 20 0 9 6 13 15 9 8 -3 15
-1 15 4 0 5 -8 11 -17 13 -10 3 0 5 21 6 50 1 43 9 -14 16 -24 3 -46 8 -48 10
-2 2 -15 -1 -29 -6 -20 -7 -28 -6 -39 8 -7 10 -14 13 -14 8 0 -6 -8 -11 -17
-11 -24 -1 -71 -11 -81 -18 -5 -3 -20 -7 -35 -10 -19 -3 -27 0 -27 9 0 23 41
44 131 66 46 11 98 26 114 34 81 36 222 41 315 10z m1644 4 c39 -11 111 -31
161 -45 89 -24 135 -46 135 -64 0 -19 -20 -19 -79 -1 -33 10 -63 16 -66 13 -3
-4 -10 0 -15 8 -8 12 -10 12 -15 -2 -7 -17 -34 -14 -47 6 -5 7 -8 7 -8 -2 0
-7 -11 -12 -27 -11 -16 0 -41 -4 -58 -9 -29 -10 -29 -10 15 -12 38 -1 41 -3
23 -10 -25 -10 -30 -19 -10 -16 6 0 12 -3 12 -9 0 -5 -6 -9 -12 -9 -7 1 -10
-2 -7 -7 3 -5 12 -9 20 -9 25 0 15 -19 -13 -23 -28 -4 -28 -4 3 -6 31 -1 54
-17 54 -37 0 -18 101 -117 134 -132 23 -10 27 -17 24 -45 -2 -21 -8 -32 -19
-32 -16 0 -58 27 -88 56 -9 9 -26 20 -38 23 -13 4 -23 14 -23 21 0 8 -14 29
-30 47 l-31 33 28 6 28 7 -27 1 c-14 0 -34 -2 -43 -5 -14 -6 -14 -9 -2 -23 8
-9 18 -29 21 -46 4 -16 17 -40 29 -53 18 -20 19 -25 7 -33 -13 -9 -12 -10 2
-5 20 6 81 -41 72 -55 -3 -5 -13 -13 -24 -19 -14 -8 -28 -1 -69 31 -28 22 -51
47 -51 55 0 8 -6 11 -15 8 -8 -4 -15 -1 -15 5 0 6 -8 11 -17 10 -11 0 -13 -3
-5 -6 6 -2 12 -9 12 -14 0 -6 -4 -7 -10 -4 -5 3 -10 1 -10 -4 0 -6 -5 -11 -11
-11 -7 0 -9 10 -5 28 l6 27 -19 -23 c-18 -21 -58 -22 -45 -1 3 6 -1 21 -10 34
-9 13 -13 32 -9 41 4 12 3 15 -5 10 -7 -4 -12 -2 -12 6 0 8 -5 6 -11 -4 -15
-26 -42 -23 -34 3 9 28 -13 16 -24 -13 -6 -18 -8 -18 -21 7 -11 21 -12 30 -2
46 11 17 9 19 -9 19 -16 0 -20 5 -16 20 3 13 0 20 -9 20 -8 0 -14 6 -14 13 0
6 -3 22 -6 35 -5 17 -2 22 12 23 16 0 15 2 -3 9 -27 11 -28 12 -7 56 38 79
205 114 348 73z"/>
<path d="M1170 2310 c0 -5 7 -10 15 -10 8 0 15 5 15 10 0 6 -7 10 -15 10 -8 0
-15 -4 -15 -10z"/>
<path d="M616 1404 c-3 -8 -11 -12 -17 -8 -8 4 -9 3 -5 -4 8 -14 46 2 46 18 0
16 -17 11 -24 -6z"/>
<path d="M745 1330 c-10 -11 -23 -17 -29 -13 -6 3 -8 3 -4 -2 4 -4 3 -16 -2
-26 -13 -23 -3 -47 21 -54 37 -12 115 67 102 103 -7 19 -68 14 -88 -8z m15
-70 c0 -5 -5 -10 -11 -10 -5 0 -7 5 -4 10 3 6 8 10 11 10 2 0 4 -4 4 -10z"/>
<path d="M838 1273 c6 -2 18 -2 25 0 6 3 1 5 -13 5 -14 0 -19 -2 -12 -5z"/>
<path d="M888 1273 c6 -2 18 -2 25 0 6 3 1 5 -13 5 -14 0 -19 -2 -12 -5z"/>
<path d="M713 1203 c32 -5 34 -17 7 -40 -11 -10 -20 -22 -20 -28 0 -6 9 -11
20 -12 14 -1 20 4 20 20 0 12 3 32 6 45 6 20 3 22 -27 21 -31 -2 -31 -2 -6 -6z"/>
<path d="M658 1113 c7 -3 16 -2 19 1 4 3 -2 6 -13 5 -11 0 -14 -3 -6 -6z"/>
<path d="M2515 1409 c-4 -6 -5 -12 -2 -15 2 -3 7 2 10 11 7 17 1 20 -8 4z"/>
<path d="M2360 1403 c0 -6 8 -17 18 -24 16 -13 16 -13 2 6 -8 11 -16 22 -17
24 -2 2 -3 0 -3 -6z"/>
<path d="M2450 1349 c0 -5 5 -7 10 -4 6 3 10 8 10 11 0 2 -4 4 -10 4 -5 0 -10
-5 -10 -11z"/>
<path d="M2390 1326 c0 -6 10 -20 22 -33 26 -28 18 -41 -14 -19 -37 26 -58 19
-26 -8 15 -13 24 -27 21 -30 -4 -3 3 -6 15 -6 12 0 26 9 32 20 8 16 5 25 -20
52 -16 18 -30 29 -30 24z"/>
<path d="M2228 1273 c7 -3 16 -2 19 1 4 3 -2 6 -13 5 -11 0 -14 -3 -6 -6z"/>
<path d="M2428 1203 c12 -2 30 -2 40 0 9 3 -1 5 -23 4 -22 0 -30 -2 -17 -4z"/>
<path d="M2400 1169 c5 -18 7 -36 4 -40 -3 -5 4 -9 15 -9 24 0 29 28 6 36 -8
4 -15 12 -15 19 0 8 -4 16 -9 20 -6 3 -6 -7 -1 -26z"/>
<path d="M2368 1123 c7 -3 16 -2 19 1 4 3 -2 6 -13 5 -11 0 -14 -3 -6 -6z"/>
</g>
</svg>
